PathFileType	4	(X/Y/Z)	RBDS016\RBDS016runT45.trc
DataRate	CameraRate	NumFrames	NumMarkers	Units	OrigDataRate	OrigDataStartFrame	OrigNumFrames
150.000000	150.000000	4	33	mm	150.000000	2250	4500
Frame#	Time	L.ASIS			L.Heel.Bottom			L.Heel.Lateral			L.Heel.Top			L.Iliac.Crest			L.MT1			L.MT5			L.PSIS			L.Shank.Bottom.Lateral			L.Shank.Bottom.Medial			L.Shank.Top.Lateral			L.Shank.Top.Medial			L.Thigh.Bottom.Lateral			L.Thigh.Bottom.Medial			L.Thigh.Top.Lateral			L.Thigh.Top.Medial			R.ASIS			R.ASY			R.Heel.Bottom			R.Heel.Lateral			R.Heel.Top			R.Iliac.Crest			R.MT1			R.MT5			R.PSIS			R.Shank.Bottom.Lateral			R.Shank.Bottom.Medial			R.Shank.Top.Lateral			R.Shank.Top.Medial			R.Thigh.Bottom.Lateral			R.Thigh.Bottom.Medial			R.Thigh.Top.Lateral			R.Thigh.Top.Medial			
		X1	Y1	Z1	X2	Y2	Z2	X3	Y3	Z3	X4	Y4	Z4	X5	Y5	Z5	X6	Y6	Z6	X7	Y7	Z7	X8	Y8	Z8	X9	Y9	Z9	X10	Y10	Z10	X11	Y11	Z11	X12	Y12	Z12	X13	Y13	Z13	X14	Y14	Z14	X15	Y15	Z15	X16	Y16	Z16	X17	Y17	Z17	X18	Y18	Z18	X19	Y19	Z19	X20	Y20	Z20	X21	Y21	Z21	X22	Y22	Z22	X23	Y23	Z23	X24	Y24	Z24	X25	Y25	Z25	X26	Y26	Z26	X27	Y27	Z27	X28	Y28	Z28	X29	Y29	Z29	X30	Y30	Z30	X31	Y31	Z31	X32	Y32	Z32	X33	Y33	Z33	

2251	15	2374.942853545052	886.278404381139	854.0033669699799	1756.055481687678	596.8693661403754	963.6916548449217	1756.56869927461	578.6645991655994	913.7648201689551	1794.231177614036	571.1637085443377	948.6449784116286	2304.069564679718	969.8294338689374	802.8135095105889	1692.331208146485	383.6967610597209	947.9559180103366	1681.113855052299	447.4584510173812	861.3471920026398	2192.266281990393	934.0295322391248	921.7851056266228	1854.646459939953	528.0317607187502	874.5772130033768	1865.436669718778	541.1124653027262	927.7467443560421	1933.087416728124	531.0828818687704	858.4586564435821	1944.525475277073	542.8872405244956	909.4175038376389	2171.664096872425	532.3942440315362	807.5095111179294	2121.400980744664	554.8341513104277	855.3506407448175	2201.608563373983	636.8431608129853	790.517076695824	2152.338306208424	658.4588902143059	836.1972997478779	2365.266012708883	911.2344313913086	1076.850479953606	2612.626662810309	110.2467312220924	1028.216737487032	2458.05021991751	22.55525640985174	963.2696015595404	2469.687365190201	38.17422374381587	1013.385500574029	2455.053524823246	71.18750485144695	974.6528789723544	2284.968254708051	967.2808880355057	1131.102137823096	2655.160524232002	99.80789745553881	988.1408069178386	2612.023189055215	51.6980837565572	1079.73391481365	2185.544259410109	932.022205407477	1022.74569591095	2474.721217567221	152.6205178868401	1056.760073683063	2441.799801434734	157.0616325934105	1017.674352711383	2451.89324750561	230.7191926394001	1081.393296928723	2418.581617323299	231.4848501020881	1039.758079576552	2393.519977810372	558.3128457642954	1127.584567555327	2341.418182862061	535.5045901907714	1082.875577749772	2335.557408161062	650.0154755994997	1147.565925094071	2286.42976549041	628.1730640409185	1105.770153518959	
2252	15.00666666666667	2374.699490351375	880.0469189994758	854.9108356601489	1775.428408294108	601.5255423599345	962.9815882984158	1775.720900043243	583.4173126085915	912.854833848683	1812.920389556963	574.7446006848129	948.0465275207339	2304.701321158346	960.5870598055332	802.0571397891507	1705.38655710326	390.4449493479309	945.2353058883907	1696.925251096506	455.0366196131509	858.9573716842891	2191.208668080379	925.3375993412202	919.9985933743175	1872.235644476615	529.1557668479871	873.4779239626216	1883.61671175125	541.7571183324565	926.6572518136244	1950.693669039467	528.8724502831658	857.3553479318285	1962.712256495269	540.0825189634722	908.3510520297663	2180.967868773241	522.589935195264	806.5854528326207	2129.46836672701	543.3972728376427	853.9718920741324	2207.770516633794	628.0830993617791	790.1256572928443	2157.643582807523	648.0778617090647	835.6293170827756	2364.04385221879	907.6831976907586	1078.035745856908	2591.970037736473	100.1452803204891	1023.761011652172	2431.050827706638	21.77459662163663	961.6743314939965	2444.179882061141	37.79469205335003	1011.107148924758	2432.02354767306	70.68764855966677	971.2822588979187	2282.395379047027	962.2920798387495	1131.636498579482	2633.791222402925	85.93979641529538	984.0633731235981	2587.390872481189	43.74197314253398	1077.415178051772	2183.444534539948	925.6433742639889	1021.027229249479	2457.903032382906	147.8305557731333	1053.840257623218	2424.276601971423	154.1071957798725	1015.720486451415	2439.278470874708	226.7466846800215	1079.412350985964	2405.043478435864	229.3181051789412	1038.724906119979	2391.879676793905	554.6701753322334	1127.473247830651	2339.396223178269	531.6590682295034	1083.279525258159	2333.73989263695	646.2103717774185	1147.942724853585	2284.285201103793	624.1360572747476	1106.578308262053	
2253	15.01333333333333	2374.132684713134	873.5584599035549	856.0615194315152	1795.081234709584	604.3559346895321	962.0593865267299	1795.436379899784	586.3078347578625	911.7719470549572	1832.016632890704	576.7444607719223	947.482245799418	2305.583810789192	951.1639218812886	801.5212544177008	1719.95444210261	395.1262500787602	942.1534348076029	1714.237519363525	460.3995239906409	856.1651101675806	2189.773780663603	917.1763858875509	917.8967792414052	1890.579294149494	528.9399135168887	872.2712361520136	1902.458842278714	541.1647700815575	925.4918543512528	1968.967784564234	525.6440281290355	856.2241665586943	1981.473814134889	536.3540560411304	907.2702556997308	2191.015742818467	513.0571704887914	805.5785770186053	2138.369369262417	532.0456801403848	852.5935754537296	2214.339283727006	619.5502704708099	789.6566996353376	2163.421766788986	637.7206863041446	835.0490588658125	2362.432916828364	904.0632794528059	1079.422684005547	2569.841840621658	91.4977757264828	1019.256908652664	2403.148650484846	21.80143507284286	960.2777336890144	2417.783785936967	38.43322676690914	1008.946887474219	2407.920251551656	70.89828683780235	967.9635787402987	2279.416594209603	957.2688400205622	1132.017718403462	2610.890102147544	73.6707990760231	980.0783889129743	2561.610773060727	37.57166882081098	1075.208546870343	2181.016676948864	919.6903318062612	1018.923494319364	2440.18502866662	144.0852673893756	1050.94097797311	2405.936549276493	152.3312838973733	1013.831963559063	2426.084490032646	223.6425087656078	1077.459494337405	2391.006929306109	228.1821422363781	1037.756703690355	2389.63775848092	550.8600240424664	1127.522237582182	2337.01216279913	527.8489146782074	1083.453864991082	2331.22518717624	642.2153688379033	1148.469484435777	2281.669695802448	620.0987750711289	1107.197490965595	
2254	15.02	2373.22585578242	867.0084260636685	857.4631361316603	1814.747552230117	605.4965708627019	960.7767279505861	1815.468399462327	587.4176203108431	910.4156315437198	1851.284351607128	577.2826566205853	946.840683068377	2306.508755838901	941.9649268390043	801.2797215388196	1735.865096780187	397.6981902085589	938.8783966546489	1732.82610721524	463.4136553741861	853.0577168323193	2187.964919453319	909.7938770604255	915.6097047567885	1909.518335461272	527.487957637256	870.9398576671539	1921.788959435491	539.468085234426	924.2381894537901	1987.803142760605	521.5584958240154	855.0749778669604	2000.684722419101	531.903287025534	906.1818700681226	2201.934078196446	504.0196799490724	804.5508852402779	2148.261959789732	520.9954517421781	851.2803980720613	2221.39842796118	611.421965929606	789.1459059773895	2169.755361834612	627.5506964603256	834.4685165681403	2360.406978724543	900.3780403389735	1081.050669130536	2546.288525632894	84.52915718452589	1014.948357705778	2374.66464559253	22.49782958563087	959.0833151598887	2390.726456539509	39.91711633204666	1006.954424186414	2382.889812059702	71.68524334674352	964.8093135143155	2276.051724768512	952.2685262364288	1132.287907878454	2586.557294919056	63.41131063919042	976.4350769600629	2534.855229272754	33.27130770564049	1073.223280916107	2178.293415400296	914.3025281872212	1016.566080878508	2421.517770384916	141.4497920102602	1048.161557157939	2386.812646767463	151.7562034951856	1012.032006583421	2412.194750696749	221.4346915495944	1075.564046985031	2376.437902648996	228.0701783080311	1036.811251056754	2386.621533030629	546.9125304321012	1127.670467133403	2334.094763097045	524.137294828225	1083.330411126618	2327.92812564186	638.1139890617696	1149.057835327039	2278.488160245612	616.1738928508894	1107.54231033319	
